<svg xmlns="http://www.w3.org/2000/svg" viewBox="0 0 38.27 28"><defs><style>.cls-1{fill:#050505;}</style></defs><g id="레이어_2" data-name="레이어 2"><g id="레이어_1-2" data-name="레이어 1"><path class="cls-1" d="M0,23.33H2.84C3,21.24,4.39,19.6,6.07,19.6s3,1.64,3.23,3.73h2.81a7.29,7.29,0,0,0-2.48-5.18,5.14,5.14,0,1,0-7.13,0A7.33,7.33,0,0,0,0,23.33Zm3.71-8.86A2.34,2.34,0,1,1,6.07,16.8,2.34,2.34,0,0,1,3.73,14.47Z"/><rect class="cls-1" y="25.2" width="12.13" height="2.8"/><path class="cls-1" d="M26.15,18.67H29c.18-2.1,1.55-3.74,3.23-3.74s3,1.64,3.23,3.74h2.82a7.36,7.36,0,0,0-2.49-5.19A5.07,5.07,0,0,0,37.33,9.8a5.13,5.13,0,1,0-10.26,0,5.07,5.07,0,0,0,1.57,3.68A7.36,7.36,0,0,0,26.15,18.67ZM29.87,9.8a2.33,2.33,0,1,1,2.33,2.33A2.33,2.33,0,0,1,29.87,9.8Z"/><rect class="cls-1" x="26.13" y="20.53" width="12.13" height="2.8"/><rect class="cls-1" x="26.13" y="25.2" width="12.13" height="2.8"/><path class="cls-1" d="M13.09,14H15.9c.19-2.09,1.56-3.73,3.23-3.73s3.05,1.64,3.23,3.73h2.82A7.31,7.31,0,0,0,22.7,8.82a5.14,5.14,0,1,0-7.13,0A7.27,7.27,0,0,0,13.09,14ZM16.8,5.13a2.34,2.34,0,1,1,2.33,2.34A2.34,2.34,0,0,1,16.8,5.13Z"/><rect class="cls-1" x="13.07" y="15.87" width="12.13" height="2.8"/><rect class="cls-1" x="13.07" y="20.53" width="12.13" height="2.8"/><rect class="cls-1" x="13.07" y="25.2" width="12.13" height="2.8"/></g></g></svg>