<svg xmlns="http://www.w3.org/2000/svg" viewBox="0 0 31 34.16"><defs><style>.cls-1{fill:#050505;}</style></defs><g id="레이어_2" data-name="레이어 2"><g id="레이어_1-2" data-name="레이어 1"><path class="cls-1" d="M15.5,0,0,5.54V19.76c0,.41,1.27,10,15.05,14.27l.44.13.44-.13C29.72,29.79,31,20.17,31,19.76V5.54ZM14,23.4a6.49,6.49,0,0,1,0-12.64,6.34,6.34,0,0,1,3,0A6.49,6.49,0,0,1,17,23.4a6.34,6.34,0,0,1-3,0ZM3,19.49V7.65L14,3.72v4a9.49,9.49,0,0,0,0,18.74v4C4.42,26.79,3.12,20.26,3,19.49Zm25,0c-.13.81-1.44,7.31-11,11v-4A9.49,9.49,0,0,0,17,7.71v-4L28,7.65Z"/><polygon class="cls-1" points="20 15.58 17 15.58 17 12.58 14 12.58 14 15.58 11 15.58 11 18.58 14 18.58 14 21.58 17 21.58 17 18.58 20 18.58 20 15.58"/></g></g></svg>