<svg xmlns="http://www.w3.org/2000/svg" viewBox="0 0 41.5 33"><defs><style>.cls-1{fill:#050505;}</style></defs><g id="레이어_2" data-name="레이어 2"><g id="레이어_1-2" data-name="레이어 1"><path class="cls-1" d="M38.5,9v3.75c0,1.47-1.49,2-2.53,2.15A12.78,12.78,0,0,0,27,3.08c-2.86-1-10.81-1.16-14.2-.26L9.4.3A1.5,1.5,0,0,0,7,1.5V5.92A15.82,15.82,0,0,0,4.47,10h-3A1.5,1.5,0,0,0,0,11.5v7A1.5,1.5,0,0,0,1.5,20H4.36a12.32,12.32,0,0,0,4.41,6.22L8,29.14a1.49,1.49,0,0,0,.79,1.7l4,2a1.44,1.44,0,0,0,.67.16,1.49,1.49,0,0,0,1.34-.83L16.43,29h7.32l2.55,3.4a1.49,1.49,0,0,0,1.87.44l4-2a1.5,1.5,0,0,0,.67-2L31.4,26a13.14,13.14,0,0,0,4.4-8c2.33-.24,5.7-1.51,5.7-5.21V9ZM28.74,24.21a1.5,1.5,0,0,0-.58,2l1.33,2.66L28,29.6l-2.25-3a1.49,1.49,0,0,0-1.2-.6h-9a1.49,1.49,0,0,0-1.34.83l-1.33,2.66-1.58-.79L12,25.86a1.49,1.49,0,0,0-.79-1.7C7.9,22.52,7,18.24,7,18.21A1.5,1.5,0,0,0,5.5,17H3V13H5.5a1.48,1.48,0,0,0,1.42-1A12.89,12.89,0,0,1,9.56,7.56,1.5,1.5,0,0,0,10,6.5v-2l1.6,1.2a1.49,1.49,0,0,0,1.57.14C14.68,5.09,23.26,5,26,5.92a9.72,9.72,0,0,1,7,9.58A10.12,10.12,0,0,1,28.74,24.21Z"/><path d="M18.88,22.84V21.33a5.06,5.06,0,0,1-.83-.18,6.89,6.89,0,0,1-3.56-2.46l1.63-1.26A4.48,4.48,0,0,0,17.69,19a4.43,4.43,0,0,0,1.19.5v-4l-.26-.09c-2.48-.84-3.35-1.93-3.35-3.33S16.3,9.68,18,9.2A7.36,7.36,0,0,1,18.88,9V7.54h2.39V9.07a5.82,5.82,0,0,1,1.29.39,6.12,6.12,0,0,1,2,1.3L23,12A4.41,4.41,0,0,0,21.52,11l-.25-.09v3.45l0,0c2,.74,3.7,1.48,3.7,3.47,0,1.45-1.13,2.69-3,3.25a4.93,4.93,0,0,1-.71.16v1.55Zm0-9.3v-2.7a2.33,2.33,0,0,0-.57.29,1.23,1.23,0,0,0-.5,1,1.35,1.35,0,0,0,.34.91A1.79,1.79,0,0,0,18.88,13.54Zm2.39,2.86v3a2.57,2.57,0,0,0,.49-.27,1.52,1.52,0,0,0,.7-1.29,1.42,1.42,0,0,0-.88-1.31C21.48,16.52,21.38,16.45,21.27,16.4Z"/></g></g></svg>