<svg xmlns="http://www.w3.org/2000/svg" viewBox="0 0 38.42 36"><defs><style>.cls-1{fill:#050505;}</style></defs><g id="레이어_2" data-name="레이어 2"><g id="레이어_1-2" data-name="레이어 1"><path class="cls-1" d="M14.25,21.26V5.75a5.75,5.75,0,0,0-11.5,0V21.26A8.49,8.49,0,1,0,17,27.5,8.44,8.44,0,0,0,14.25,21.26ZM8.5,33A5.51,5.51,0,0,1,3,27.5a5.32,5.32,0,0,1,.14-1.2,5.47,5.47,0,0,1,2.61-3.56v-17a2.75,2.75,0,0,1,5.5,0v17a5.47,5.47,0,0,1,2.61,3.56A5.32,5.32,0,0,1,14,27.5,5.51,5.51,0,0,1,8.5,33Z"/><path class="cls-1" d="M9.47,23.63a.5.5,0,0,0,0-.13v-12a1,1,0,0,0-2,0v12a.5.5,0,0,0,0,.13,4,4,0,1,0,1.94,0Zm-1,5.87a2,2,0,1,1,2-2A2,2,0,0,1,8.5,29.5Z"/><path class="cls-1" d="M27.42,17.5a6,6,0,1,1,6-6A6,6,0,0,1,27.42,17.5Zm0-9a3,3,0,1,0,3,3A3,3,0,0,0,27.42,8.5Z"/><path class="cls-1" d="M27.73,4.5A1.5,1.5,0,0,1,26.23,3V2a1.5,1.5,0,0,1,3,0V3A1.5,1.5,0,0,1,27.73,4.5Z"/><path class="cls-1" d="M22.69,6.33a1.49,1.49,0,0,1-2.12,0l-.71-.71a1.51,1.51,0,0,1,0-2.12A1.49,1.49,0,0,1,22,3.5l.71.71A1.49,1.49,0,0,1,22.69,6.33Z"/><path class="cls-1" d="M20.42,11.19a1.5,1.5,0,0,1-1.5,1.5h-1a1.5,1.5,0,0,1,0-3h1A1.5,1.5,0,0,1,20.42,11.19Z"/><path class="cls-1" d="M22.25,16.23a1.49,1.49,0,0,1,0,2.12l-.71.71a1.5,1.5,0,0,1-2.12-2.12l.71-.71A1.49,1.49,0,0,1,22.25,16.23Z"/><path class="cls-1" d="M27.11,18.5a1.5,1.5,0,0,1,1.5,1.5v1a1.5,1.5,0,0,1-3,0V20A1.5,1.5,0,0,1,27.11,18.5Z"/><path class="cls-1" d="M32.15,16.67a1.49,1.49,0,0,1,2.12,0l.71.71a1.51,1.51,0,0,1,0,2.12,1.49,1.49,0,0,1-2.12,0l-.71-.71A1.49,1.49,0,0,1,32.15,16.67Z"/><path class="cls-1" d="M34.42,11.81a1.5,1.5,0,0,1,1.5-1.5h1a1.5,1.5,0,0,1,0,3h-1A1.5,1.5,0,0,1,34.42,11.81Z"/><path class="cls-1" d="M32.59,6.77a1.49,1.49,0,0,1,0-2.12l.71-.71a1.51,1.51,0,0,1,2.12,0,1.49,1.49,0,0,1,0,2.12l-.71.71A1.49,1.49,0,0,1,32.59,6.77Z"/></g></g></svg>