<svg xmlns="http://www.w3.org/2000/svg" viewBox="0 0 35 30.5"><defs><style>.cls-1{fill:#050505;}</style></defs><g id="레이어_2" data-name="레이어 2"><g id="레이어_1-2" data-name="레이어 1"><path class="cls-1" d="M21,9a4.5,4.5,0,1,1,4.5-4.5A4.51,4.51,0,0,1,21,9Zm0-6a1.5,1.5,0,1,0,1.5,1.5A1.5,1.5,0,0,0,21,3Z"/><path class="cls-1" d="M27.5,30.5A7.5,7.5,0,1,1,35,23,7.5,7.5,0,0,1,27.5,30.5Zm0-12A4.5,4.5,0,1,0,32,23,4.51,4.51,0,0,0,27.5,18.5Z"/><path class="cls-1" d="M7.5,30.5A7.5,7.5,0,1,1,15,23,7.5,7.5,0,0,1,7.5,30.5Zm0-12A4.5,4.5,0,1,0,12,23,4.51,4.51,0,0,0,7.5,18.5Z"/><path class="cls-1" d="M17,28.29l-1.91-9.57L9.49,13.11l6.08-7.6,1.15,1.62c4.29,6,10.13,4.49,10.38,4.43l.81,2.88a12.64,12.64,0,0,1-12.41-4l-2,2.49,3.74,3.74a3,3,0,0,1,.81,1.51L20,27.71Z"/></g></g></svg>