<svg xmlns="http://www.w3.org/2000/svg" viewBox="0 0 42.5 33.5"><defs><style>.cls-1{fill:none;}.cls-2{fill:#050505;}</style></defs><g id="레이어_2" data-name="레이어 2"><g id="레이어_1-2" data-name="레이어 1"><path class="cls-1" d="M27.5,20.5a6.5,6.5,0,0,1,6,4h.09a5.92,5.92,0,0,0,5.91-5.91V8.91A5.92,5.92,0,0,0,33.59,3H14.41A5.92,5.92,0,0,0,8.5,8.91V24.5h13A6.5,6.5,0,0,1,27.5,20.5Z"/><path class="cls-2" d="M33.59,0H14.41A8.92,8.92,0,0,0,5.5,8.91V24.5H0v3H21a6.49,6.49,0,0,0,12.95,0,8.91,8.91,0,0,0,8.52-8.89V8.91A8.92,8.92,0,0,0,33.59,0ZM31,27.5a3.48,3.48,0,0,1-6.9,0A4,4,0,0,1,24,27a3.5,3.5,0,0,1,7,0A4,4,0,0,1,31,27.5Zm8.55-8.91a5.92,5.92,0,0,1-5.91,5.91H33.5a6.5,6.5,0,0,0-12,0H8.5V8.91A5.92,5.92,0,0,1,14.41,3H33.59A5.92,5.92,0,0,1,39.5,8.91Z"/><circle class="cls-2" cx="27.5" cy="27" r="2.5"/><rect class="cls-2" x="11" y="9.5" width="15" height="5"/><rect class="cls-2" x="29" y="9.5" width="7" height="5"/></g></g></svg>