<?xml version="1.0" encoding="utf-8"?>
<!-- Generator: Adobe Illustrator 24.0.2, SVG Export Plug-In . SVG Version: 6.00 Build 0)  -->
<svg version="1.1" id="Layer_4" xmlns="http://www.w3.org/2000/svg" xmlns:xlink="http://www.w3.org/1999/xlink" x="0px" y="0px"
	 viewBox="0 0 100 100" style="enable-background:new 0 0 100 100;" xml:space="preserve">
<style type="text/css">
	.st0{fill:#CFE4F5;}
</style>
<g>
	<g>
		<path class="st0" d="M36.98,58.72V18.45c0-8.23-6.7-14.93-14.93-14.93S7.12,10.21,7.12,18.45v40.27
			c-4.38,4.04-7.14,9.8-7.14,16.21C-0.03,87.1,9.88,97,22.05,97s22.07-9.9,22.07-22.07C44.12,68.52,41.36,62.75,36.98,58.72z
			 M22.05,89.21c-7.88,0-14.28-6.41-14.28-14.28c0-1.07,0.13-2.11,0.35-3.11c0.88-3.94,3.39-7.27,6.79-9.24v-8.51V18.45
			c0-3.94,3.2-7.14,7.14-7.14s7.14,3.2,7.14,7.14v35.62v8.51c3.4,1.97,5.91,5.3,6.79,9.24c0.22,1,0.35,2.04,0.35,3.11
			C36.33,82.8,29.92,89.21,22.05,89.21z"/>
		<path class="st0" d="M24.57,64.89c0.02-0.12,0.07-0.22,0.07-0.35V33.38c0-1.43-1.16-2.6-2.6-2.6c-1.43,0-2.6,1.16-2.6,2.6v31.16
			c0,0.12,0.05,0.23,0.07,0.35c-4.5,1.14-7.86,5.19-7.86,10.04c0,5.73,4.66,10.39,10.39,10.39s10.39-4.66,10.39-10.39
			C32.43,70.08,29.08,66.02,24.57,64.89z M22.05,80.12c-2.86,0-5.19-2.33-5.19-5.19c0-2.86,2.33-5.19,5.19-5.19s5.19,2.33,5.19,5.19
			C27.24,77.79,24.91,80.12,22.05,80.12z"/>
	</g>
	<g>
		<g>
			<path class="st0" d="M71.18,48.96c-8.59,0-15.58-6.99-15.58-15.58S62.59,17.8,71.18,17.8s15.58,6.99,15.58,15.58
				S79.77,48.96,71.18,48.96z M71.18,25.59c-4.3,0-7.79,3.49-7.79,7.79s3.49,7.79,7.79,7.79c4.3,0,7.79-3.49,7.79-7.79
				S75.47,25.59,71.18,25.59z"/>
		</g>
		<g>
			<g>
				<path class="st0" d="M71.99,15.2c-2.15,0-3.9-1.74-3.9-3.9v-2.6c0-2.15,1.74-3.9,3.9-3.9c2.15,0,3.9,1.74,3.9,3.9v2.6
					C75.89,13.46,74.14,15.2,71.99,15.2z"/>
			</g>
			<g>
				<path class="st0" d="M58.9,19.95c-1.52,1.52-3.99,1.52-5.51,0l-1.84-1.84c-1.52-1.52-1.52-3.99,0-5.51s3.99-1.52,5.51,0
					l1.84,1.84C60.42,15.96,60.42,18.43,58.9,19.95z"/>
			</g>
			<g>
				<path class="st0" d="M53,32.57c0,2.15-1.74,3.9-3.9,3.9h-2.6c-2.15,0-3.9-1.74-3.9-3.9s1.74-3.9,3.9-3.9h2.6
					C51.26,28.67,53,30.42,53,32.57z"/>
			</g>
			<g>
				<path class="st0" d="M57.75,45.66c1.52,1.52,1.52,3.99,0,5.51L55.92,53c-1.52,1.52-3.99,1.52-5.51,0
					c-1.52-1.52-1.52-3.99,0-5.51l1.84-1.84C53.76,44.14,56.23,44.14,57.75,45.66z"/>
			</g>
			<g>
				<path class="st0" d="M70.37,51.56c2.15,0,3.9,1.74,3.9,3.9v2.6c0,2.15-1.74,3.9-3.9,3.9c-2.15,0-3.9-1.74-3.9-3.9v-2.6
					C66.47,53.3,68.22,51.56,70.37,51.56z"/>
			</g>
			<g>
				<path class="st0" d="M83.46,46.81c1.52-1.52,3.99-1.52,5.51,0l1.84,1.84c1.52,1.52,1.52,3.99,0,5.51
					c-1.52,1.52-3.99,1.52-5.51,0l-1.84-1.84C81.94,50.79,81.94,48.33,83.46,46.81z"/>
			</g>
			<g>
				<path class="st0" d="M89.36,34.19c0-2.15,1.74-3.9,3.9-3.9h2.6c2.15,0,3.9,1.74,3.9,3.9s-1.74,3.9-3.9,3.9h-2.6
					C91.1,38.09,89.36,36.34,89.36,34.19z"/>
			</g>
			<g>
				<path class="st0" d="M84.61,21.1c-1.52-1.52-1.52-3.99,0-5.51l1.84-1.84c1.52-1.52,3.99-1.52,5.51,0c1.52,1.52,1.52,3.99,0,5.51
					l-1.84,1.84C88.59,22.62,86.13,22.62,84.61,21.1z"/>
			</g>
		</g>
	</g>
</g>
</svg>
