<?xml version="1.0" encoding="utf-8"?>
<!-- Generator: Adobe Illustrator 24.0.2, SVG Export Plug-In . SVG Version: 6.00 Build 0)  -->
<svg version="1.1" id="Layer_1" xmlns="http://www.w3.org/2000/svg" xmlns:xlink="http://www.w3.org/1999/xlink" x="0px" y="0px"
	 viewBox="0 0 100 100" style="enable-background:new 0 0 100 100;" xml:space="preserve">
<style type="text/css">
	.st0{fill:#CFE4F5;}
</style>
<g>
	<path class="st0" d="M0.12,73.7h7.35c0.48-5.47,4.05-9.74,8.43-9.74s7.95,4.28,8.43,9.74h7.35c-0.32-5.56-2.81-10.43-6.48-13.53
		c2.52-2.44,4.1-5.84,4.1-9.61c0-7.39-6.01-13.4-13.4-13.4S2.5,43.17,2.5,50.55c0,3.77,1.58,7.17,4.1,9.61
		C2.93,63.27,0.44,68.14,0.12,73.7z M9.81,50.55c0-3.36,2.73-6.09,6.09-6.09s6.09,2.73,6.09,6.09c0,3.36-2.73,6.09-6.09,6.09
		S9.81,53.91,9.81,50.55z"/>
	<rect x="0.07" y="78.57" class="st0" width="31.67" height="7.31"/>
	<path class="st0" d="M68.33,61.52h7.35c0.48-5.47,4.05-9.74,8.43-9.74c4.38,0,7.95,4.28,8.43,9.74h7.35
		c-0.32-5.56-2.81-10.43-6.48-13.53c2.52-2.44,4.1-5.84,4.1-9.61c0-7.39-6.01-13.4-13.4-13.4s-13.4,6.01-13.4,13.4
		c0,3.77,1.58,7.17,4.1,9.61C71.13,51.09,68.65,55.96,68.33,61.52z M78.02,38.37c0-3.36,2.73-6.09,6.09-6.09
		c3.36,0,6.09,2.73,6.09,6.09s-2.73,6.09-6.09,6.09C80.75,44.46,78.02,41.73,78.02,38.37z"/>
	<rect x="68.27" y="66.39" class="st0" width="31.67" height="7.31"/>
	<rect x="68.27" y="78.57" class="st0" width="31.67" height="7.31"/>
	<path class="st0" d="M34.22,49.34h7.35c0.48-5.47,4.05-9.74,8.43-9.74c4.38,0,7.95,4.28,8.43,9.74h7.35
		c-0.32-5.56-2.81-10.43-6.48-13.53c2.52-2.44,4.1-5.84,4.1-9.61c0-7.39-6.01-13.4-13.4-13.4s-13.4,6.01-13.4,13.4
		c0,3.77,1.58,7.17,4.1,9.61C37.03,38.91,34.54,43.78,34.22,49.34z M43.91,26.19c0-3.36,2.73-6.09,6.09-6.09
		c3.36,0,6.09,2.73,6.09,6.09c0,3.36-2.73,6.09-6.09,6.09C46.64,32.28,43.91,29.55,43.91,26.19z"/>
	<rect x="34.17" y="54.21" class="st0" width="31.67" height="7.31"/>
	<rect x="34.17" y="66.39" class="st0" width="31.67" height="7.31"/>
	<rect x="34.17" y="78.57" class="st0" width="31.67" height="7.31"/>
</g>
</svg>
