<?xml version="1.0" encoding="utf-8"?>
<!-- Generator: Adobe Illustrator 24.0.2, SVG Export Plug-In . SVG Version: 6.00 Build 0)  -->
<svg version="1.1" id="Layer_6" xmlns="http://www.w3.org/2000/svg" xmlns:xlink="http://www.w3.org/1999/xlink" x="0px" y="0px"
	 viewBox="0 0 100 100" style="enable-background:new 0 0 100 100;" xml:space="preserve"
	 >
<style type="text/css">
	.st0{fill:none;}
	.st1{fill:#CFE4F5;}
</style>
<g>
	<path class="st0" d="M64.69,60.65c6.3,0,11.71,3.86,14,9.34h0.21c7.61,0,13.8-6.19,13.8-13.8V33.6c0-7.61-6.19-13.8-13.8-13.8
		H34.13c-7.61,0-13.8,6.19-13.8,13.8v36.39h3.5h26.85C52.98,64.51,58.39,60.65,64.69,60.65z"/>
	<g>
		<path class="st1" d="M78.91,12.79H34.13c-11.47,0-20.8,9.33-20.8,20.8v36.39H0.49v7h12.84h10.51h25.74
			C50.18,84.81,56.72,91,64.69,91c7.99,0,14.54-6.21,15.12-14.05c11.05-0.48,19.9-9.59,19.9-20.76V33.6
			C99.71,22.12,90.38,12.79,78.91,12.79z M72.74,76.99c-0.57,3.95-3.95,7-8.05,7s-7.48-3.05-8.05-7c-0.06-0.38-0.12-0.77-0.12-1.17
			c0-2.29,0.95-4.35,2.47-5.84c1.47-1.44,3.48-2.33,5.7-2.33c2.22,0,4.23,0.89,5.7,2.33c1.52,1.48,2.47,3.55,2.47,5.84
			C72.86,76.22,72.8,76.61,72.74,76.99z M92.71,56.19c0,7.61-6.19,13.8-13.8,13.8H78.7c-2.29-5.48-7.7-9.34-14-9.34
			c-6.3,0-11.71,3.86-14,9.34H23.84h-3.5V33.6c0-7.61,6.19-13.8,13.8-13.8h44.77c7.61,0,13.8,6.19,13.8,13.8V56.19z"/>
		<circle class="st1" cx="64.69" cy="75.83" r="5.84"/>
	</g>
	<rect x="26.17" y="34.97" class="st1" width="35.02" height="11.67"/>
	<rect x="68.19" y="34.97" class="st1" width="16.34" height="11.67"/>
</g>
</svg>
