<?xml version="1.0" encoding="utf-8"?>
<!-- Generator: Adobe Illustrator 24.0.2, SVG Export Plug-In . SVG Version: 6.00 Build 0)  -->
<svg version="1.1" id="Layer_3" xmlns="http://www.w3.org/2000/svg" xmlns:xlink="http://www.w3.org/1999/xlink" x="0px" y="0px"
	 viewBox="0 0 100 100" style="enable-background:new 0 0 100 100;" xml:space="preserve">
<style type="text/css">
	.st0{fill:#CFE4F5;}
	.st1{fill:#CFE4F5;}
</style>
<g>
	<path class="st0" d="M92.53,32.14v8.97c0,3.51-3.57,4.72-6.05,5.15C85.73,26.49,69.9,19.62,64.96,17.97
		c-6.85-2.29-25.87-2.76-33.99-0.61l-8.05-6.04c-1.09-0.82-2.54-0.95-3.76-0.34c-1.22,0.61-1.98,1.85-1.98,3.21v10.58
		c-1.45,1.69-4.11,5.15-6.06,9.76H4.01c-1.98,0-3.59,1.61-3.59,3.59v16.75c0,1.98,1.61,3.59,3.59,3.59h6.85
		c1.28,3.84,4.29,10.61,10.55,14.88l-1.74,6.97c-0.41,1.63,0.37,3.33,1.88,4.08l9.57,4.79c0.52,0.26,1.06,0.38,1.6,0.38
		c1.32,0,2.58-0.73,3.21-1.98l3.79-7.59h17.52l6.1,8.13c1.04,1.39,2.92,1.83,4.48,1.06l9.57-4.79c1.77-0.89,2.49-3.04,1.61-4.82
		l-3.44-6.89c3.4-2.9,8.91-9.03,10.53-19.13c5.56-0.56,13.63-3.6,13.63-12.45v-8.97H92.53z M69.18,68.52
		c-1.63,0.96-2.24,3.01-1.4,4.7l3.18,6.36l-3.68,1.84l-5.38-7.17c-0.68-0.9-1.74-1.44-2.87-1.44H37.5c-1.36,0-2.6,0.77-3.21,1.98
		l-3.18,6.36l-3.79-1.89l1.69-6.78c0.41-1.63-0.37-3.33-1.88-4.08c-7.84-3.92-10.03-14.15-10.05-14.24
		c-0.34-1.68-1.81-2.89-3.52-2.89H7.6v-9.57h5.98c1.54,0,2.92-0.99,3.4-2.45c2.08-6.23,6.28-10.52,6.31-10.56
		c0.67-0.67,1.05-1.59,1.05-2.54v-4.79l3.83,2.87c1.09,0.82,2.54,0.95,3.76,0.34c3.61-1.8,24.14-2.01,30.76,0.19
		c5.02,1.67,16.69,7.25,16.69,22.91C79.37,62.21,69.58,68.28,69.18,68.52z"/>
	<g>
		<path class="st1" d="M45.59,65.25v-3.62c-0.71-0.08-1.38-0.23-2-0.42c-4.09-1.23-7.03-3.77-8.51-5.89l3.9-3c0.9,1.58,2.14,2.85,3.76,3.85
			c0.9,0.54,1.85,0.92,2.85,1.19v-9.54l-0.62-0.23c-5.94-2-8.03-4.62-8.03-7.97c0-3.23,2.47-5.85,6.51-7
			c0.67-0.19,1.38-0.31,2.14-0.42v-3.54h5.7v3.66c1.09,0.19,2.09,0.5,3.09,0.92c1.85,0.77,3.47,1.81,4.8,3.12l-3.8,2.89
			c-1.04-0.96-2.18-1.73-3.47-2.23l-0.62-0.23v8.27l0.09,0.04c4.75,1.77,8.84,3.54,8.84,8.31c0,3.46-2.71,6.43-7.23,7.77
			c-0.52,0.16-1.09,0.27-1.71,0.39v3.69H45.59z M45.59,43v-6.47c-0.52,0.19-1,0.42-1.38,0.69c-0.81,0.65-1.19,1.46-1.19,2.38
			c0,0.85,0.29,1.58,0.81,2.19C44.17,42.23,44.79,42.66,45.59,43z M51.3,49.85v7.27c0.43-0.19,0.86-0.38,1.19-0.65
			c1.09-0.77,1.66-1.81,1.66-3.08c0-0.92-0.24-2.04-2.09-3.16C51.82,50.12,51.58,49.97,51.3,49.85z"/>
	</g>
</g>
</svg>
