<?xml version="1.0" encoding="utf-8"?>
<!-- Generator: Adobe Illustrator 24.0.2, SVG Export Plug-In . SVG Version: 6.00 Build 0)  -->
<svg version="1.1" id="Layer_5" xmlns="http://www.w3.org/2000/svg" xmlns:xlink="http://www.w3.org/1999/xlink" x="0px" y="0px"
	 viewBox="0 0 100 100" style="enable-background:new 0 0 100 100;" xml:space="preserve">
<style type="text/css">
	.st0{fill:#0D7ACF;}
</style>
<g>
	<g>
		<path class="st0" d="M59.92,31.75c-7.05,0-12.79-5.74-12.79-12.79S52.87,6.17,59.92,6.17s12.79,5.74,12.79,12.79
			S66.97,31.75,59.92,31.75z M59.92,14.7c-2.35,0-4.26,1.91-4.26,4.26s1.91,4.26,4.26,4.26s4.26-1.91,4.26-4.26
			S62.27,14.7,59.92,14.7z"/>
	</g>
	<g>
		<path class="st0" d="M78.4,92.85c-11.75,0-21.31-9.56-21.31-21.31s9.56-21.31,21.31-21.31s21.31,9.56,21.31,21.31
			S90.15,92.85,78.4,92.85z M78.4,58.75c-7.05,0-12.79,5.74-12.79,12.79c0,7.05,5.74,12.79,12.79,12.79
			c7.05,0,12.79-5.74,12.79-12.79C91.18,64.48,85.45,58.75,78.4,58.75z"/>
	</g>
	<g>
		<path class="st0" d="M21.56,92.85c-11.75,0-21.31-9.56-21.31-21.31S9.8,50.22,21.56,50.22s21.31,9.56,21.31,21.31
			S33.31,92.85,21.56,92.85z M21.56,58.75c-7.05,0-12.79,5.74-12.79,12.79c0,7.05,5.74,12.79,12.79,12.79s12.79-5.74,12.79-12.79
			C34.35,64.48,28.61,58.75,21.56,58.75z"/>
	</g>
	<g>
		<path class="st0" d="M48.64,86.58l-5.44-27.2L27.21,43.43l17.27-21.59l3.28,4.59C59.96,43.5,76.55,39.2,77.25,39.01l2.32,8.2
			c-0.87,0.25-19.91,5.43-35.26-11.5l-5.67,7.08l10.63,10.63c1.17,1.17,1.96,2.65,2.29,4.28L57,84.91L48.64,86.58z"/>
	</g>
</g>
</svg>
