<?xml version="1.0" encoding="utf-8"?>
<!-- Generator: Adobe Illustrator 24.0.2, SVG Export Plug-In . SVG Version: 6.00 Build 0)  -->
<svg version="1.1" id="Layer_2" xmlns="http://www.w3.org/2000/svg" xmlns:xlink="http://www.w3.org/1999/xlink" x="0px" y="0px"
	 viewBox="0 0 100 100" style="enable-background:new 0 0 100 100;" xml:space="preserve">
<style type="text/css">
	.st0{fill:#053153;}
</style>
<g>
	<path class="st0" d="M49.98,0.03L4.66,16.22v41.1l0.03,0.48c0.13,1.19,3.7,29.31,44,41.71l1.29,0.4l1.29-0.4
		c40.29-12.4,43.86-40.52,44-41.71l0.03-41.58L49.98,0.03z M45.59,68.44c-8.37-1.99-14.62-9.5-14.62-18.47s6.25-16.48,14.62-18.47
		c1.41-0.34,2.87-0.53,4.39-0.53s2.97,0.2,4.39,0.53c8.37,1.99,14.62,9.5,14.62,18.47s-6.25,16.48-14.62,18.47
		c-1.41,0.34-2.87,0.53-4.39,0.53S47,68.77,45.59,68.44z M13.43,57.02V22.4l32.16-11.49v11.66C32.36,24.69,22.2,36.15,22.2,49.97
		s10.15,25.28,23.39,27.39v11.77C17.57,78.34,13.78,59.27,13.43,57.02z M86.52,57.01c-0.37,2.36-4.22,21.36-32.16,32.12V77.36
		c13.23-2.11,23.39-13.57,23.39-27.39S67.59,24.69,54.36,22.58V10.91L86.52,22.4V57.01z"/>
	<polygon class="st0" points="63.13,45.58 54.36,45.58 54.36,36.81 45.59,36.81 45.59,45.58 36.82,45.58 36.82,54.35 45.59,54.35 
		45.59,63.12 54.36,63.12 54.36,54.35 63.13,54.35 	"/>
</g>
</svg>
