<?xml version="1.0" encoding="utf-8"?>
<!-- Generator: Adobe Illustrator 24.0.2, SVG Export Plug-In . SVG Version: 6.00 Build 0)  -->
<svg version="1.1" xmlns="http://www.w3.org/2000/svg" xmlns:xlink="http://www.w3.org/1999/xlink" x="0px" y="0px"
	 viewBox="0 0 100 100" style="enable-background:new 0 0 100 100;" xml:space="preserve">
<style type="text/css">
	.st0{fill:#0D7ACF;}
	.st1{display:none;}
	.st2{display:inline;}
	.st3{fill:none;}
</style>
<g id="Layer_1">
	<g>
		<path class="st0" d="M0.12,73.7h7.35c0.48-5.47,4.05-9.74,8.43-9.74s7.95,4.28,8.43,9.74h7.35c-0.32-5.56-2.81-10.43-6.48-13.53
			c2.52-2.44,4.1-5.84,4.1-9.61c0-7.39-6.01-13.4-13.4-13.4S2.5,43.17,2.5,50.55c0,3.77,1.58,7.17,4.1,9.61
			C2.93,63.27,0.44,68.14,0.12,73.7z M9.81,50.55c0-3.36,2.73-6.09,6.09-6.09s6.09,2.73,6.09,6.09c0,3.36-2.73,6.09-6.09,6.09
			S9.81,53.91,9.81,50.55z"/>
		<rect x="0.07" y="78.57" class="st0" width="31.67" height="7.31"/>
		<path class="st0" d="M68.33,61.52h7.35c0.48-5.47,4.05-9.74,8.43-9.74c4.38,0,7.95,4.28,8.43,9.74h7.35
			c-0.32-5.56-2.81-10.43-6.48-13.53c2.52-2.44,4.1-5.84,4.1-9.61c0-7.39-6.01-13.4-13.4-13.4s-13.4,6.01-13.4,13.4
			c0,3.77,1.58,7.17,4.1,9.61C71.13,51.09,68.65,55.96,68.33,61.52z M78.02,38.37c0-3.36,2.73-6.09,6.09-6.09
			c3.36,0,6.09,2.73,6.09,6.09s-2.73,6.09-6.09,6.09C80.75,44.46,78.02,41.73,78.02,38.37z"/>
		<rect x="68.27" y="66.39" class="st0" width="31.67" height="7.31"/>
		<rect x="68.27" y="78.57" class="st0" width="31.67" height="7.31"/>
		<path class="st0" d="M34.22,49.34h7.35c0.48-5.47,4.05-9.74,8.43-9.74c4.38,0,7.95,4.28,8.43,9.74h7.35
			c-0.32-5.56-2.81-10.43-6.48-13.53c2.52-2.44,4.1-5.84,4.1-9.61c0-7.39-6.01-13.4-13.4-13.4s-13.4,6.01-13.4,13.4
			c0,3.77,1.58,7.17,4.1,9.61C37.03,38.91,34.54,43.78,34.22,49.34z M43.91,26.19c0-3.36,2.73-6.09,6.09-6.09
			c3.36,0,6.09,2.73,6.09,6.09c0,3.36-2.73,6.09-6.09,6.09C46.64,32.28,43.91,29.55,43.91,26.19z"/>
		<rect x="34.17" y="54.21" class="st0" width="31.67" height="7.31"/>
		<rect x="34.17" y="66.39" class="st0" width="31.67" height="7.31"/>
		<rect x="34.17" y="78.57" class="st0" width="31.67" height="7.31"/>
	</g>
</g>
<g id="Layer_2" class="st1">
	<g class="st2">
		<path class="st0" d="M49.98,0.03L4.66,16.22v41.1l0.03,0.48c0.13,1.19,3.7,29.31,44,41.71l1.29,0.4l1.29-0.4
			c40.29-12.4,43.86-40.52,44-41.71l0.03-41.58L49.98,0.03z M45.59,68.44c-8.37-1.99-14.62-9.5-14.62-18.47s6.25-16.48,14.62-18.47
			c1.41-0.34,2.87-0.53,4.39-0.53s2.97,0.2,4.39,0.53c8.37,1.99,14.62,9.5,14.62,18.47s-6.25,16.48-14.62,18.47
			c-1.41,0.34-2.87,0.53-4.39,0.53S47,68.77,45.59,68.44z M13.43,57.02V22.4l32.16-11.49v11.66C32.36,24.69,22.2,36.15,22.2,49.97
			s10.15,25.28,23.39,27.39v11.77C17.57,78.34,13.78,59.27,13.43,57.02z M86.52,57.01c-0.37,2.36-4.22,21.36-32.16,32.12V77.36
			c13.23-2.11,23.39-13.57,23.39-27.39S67.59,24.69,54.36,22.58V10.91L86.52,22.4V57.01z"/>
		<polygon class="st0" points="63.13,45.58 54.36,45.58 54.36,36.81 45.59,36.81 45.59,45.58 36.82,45.58 36.82,54.35 45.59,54.35 
			45.59,63.12 54.36,63.12 54.36,54.35 63.13,54.35 		"/>
	</g>
</g>
<g id="Layer_3" class="st1">
	<g class="st2">
		<path class="st0" d="M92.53,32.14v8.97c0,3.51-3.57,4.72-6.05,5.15C85.73,26.49,69.9,19.62,64.96,17.97
			c-6.85-2.29-25.87-2.76-33.99-0.61l-8.05-6.04c-1.09-0.82-2.54-0.95-3.76-0.34c-1.22,0.61-1.98,1.85-1.98,3.21v10.58
			c-1.45,1.69-4.11,5.15-6.06,9.76H4.01c-1.98,0-3.59,1.61-3.59,3.59v16.75c0,1.98,1.61,3.59,3.59,3.59h6.85
			c1.28,3.84,4.29,10.61,10.55,14.88l-1.74,6.97c-0.41,1.63,0.37,3.33,1.88,4.08l9.57,4.79c0.52,0.26,1.06,0.38,1.6,0.38
			c1.32,0,2.58-0.73,3.21-1.98l3.79-7.59h17.52l6.1,8.13c1.04,1.39,2.92,1.83,4.48,1.06l9.57-4.79c1.77-0.89,2.49-3.04,1.61-4.82
			l-3.44-6.89c3.4-2.9,8.91-9.03,10.53-19.13c5.56-0.56,13.63-3.6,13.63-12.45v-8.97H92.53z M69.18,68.52
			c-1.63,0.96-2.24,3.01-1.4,4.7l3.18,6.36l-3.68,1.84l-5.38-7.17c-0.68-0.9-1.74-1.44-2.87-1.44H37.5c-1.36,0-2.6,0.77-3.21,1.98
			l-3.18,6.36l-3.79-1.89l1.69-6.78c0.41-1.63-0.37-3.33-1.88-4.08c-7.84-3.92-10.03-14.15-10.05-14.24
			c-0.34-1.68-1.81-2.89-3.52-2.89H7.6v-9.57h5.98c1.54,0,2.92-0.99,3.4-2.45c2.08-6.23,6.28-10.52,6.31-10.56
			c0.67-0.67,1.05-1.59,1.05-2.54v-4.79l3.83,2.87c1.09,0.82,2.54,0.95,3.76,0.34c3.61-1.8,24.14-2.01,30.76,0.19
			c5.02,1.67,16.69,7.25,16.69,22.91C79.37,62.21,69.58,68.28,69.18,68.52z"/>
		<g>
			<path d="M45.59,65.25v-3.62c-0.71-0.08-1.38-0.23-2-0.42c-4.09-1.23-7.03-3.77-8.51-5.89l3.9-3c0.9,1.58,2.14,2.85,3.76,3.85
				c0.9,0.54,1.85,0.92,2.85,1.19v-9.54l-0.62-0.23c-5.94-2-8.03-4.62-8.03-7.97c0-3.23,2.47-5.85,6.51-7
				c0.67-0.19,1.38-0.31,2.14-0.42v-3.54h5.7v3.66c1.09,0.19,2.09,0.5,3.09,0.92c1.85,0.77,3.47,1.81,4.8,3.12l-3.8,2.89
				c-1.04-0.96-2.18-1.73-3.47-2.23l-0.62-0.23v8.27l0.09,0.04c4.75,1.77,8.84,3.54,8.84,8.31c0,3.46-2.71,6.43-7.23,7.77
				c-0.52,0.16-1.09,0.27-1.71,0.39v3.69H45.59z M45.59,43v-6.47c-0.52,0.19-1,0.42-1.38,0.69c-0.81,0.65-1.19,1.46-1.19,2.38
				c0,0.85,0.29,1.58,0.81,2.19C44.17,42.23,44.79,42.66,45.59,43z M51.3,49.85v7.27c0.43-0.19,0.86-0.38,1.19-0.65
				c1.09-0.77,1.66-1.81,1.66-3.08c0-0.92-0.24-2.04-2.09-3.16C51.82,50.12,51.58,49.97,51.3,49.85z"/>
		</g>
	</g>
</g>
<g id="Layer_4" class="st1">
	<g class="st2">
		<g>
			<path class="st0" d="M36.98,58.72V18.45c0-8.23-6.7-14.93-14.93-14.93S7.12,10.21,7.12,18.45v40.27
				c-4.38,4.04-7.14,9.8-7.14,16.21C-0.03,87.1,9.88,97,22.05,97s22.07-9.9,22.07-22.07C44.12,68.52,41.36,62.75,36.98,58.72z
				 M22.05,89.21c-7.88,0-14.28-6.41-14.28-14.28c0-1.07,0.13-2.11,0.35-3.11c0.88-3.94,3.39-7.27,6.79-9.24v-8.51V18.45
				c0-3.94,3.2-7.14,7.14-7.14s7.14,3.2,7.14,7.14v35.62v8.51c3.4,1.97,5.91,5.3,6.79,9.24c0.22,1,0.35,2.04,0.35,3.11
				C36.33,82.8,29.92,89.21,22.05,89.21z"/>
			<path class="st0" d="M24.57,64.89c0.02-0.12,0.07-0.22,0.07-0.35V33.38c0-1.43-1.16-2.6-2.6-2.6c-1.43,0-2.6,1.16-2.6,2.6v31.16
				c0,0.12,0.05,0.23,0.07,0.35c-4.5,1.14-7.86,5.19-7.86,10.04c0,5.73,4.66,10.39,10.39,10.39s10.39-4.66,10.39-10.39
				C32.43,70.08,29.08,66.02,24.57,64.89z M22.05,80.12c-2.86,0-5.19-2.33-5.19-5.19c0-2.86,2.33-5.19,5.19-5.19
				s5.19,2.33,5.19,5.19C27.24,77.79,24.91,80.12,22.05,80.12z"/>
		</g>
		<g>
			<g>
				<path class="st0" d="M71.18,48.96c-8.59,0-15.58-6.99-15.58-15.58S62.59,17.8,71.18,17.8s15.58,6.99,15.58,15.58
					S79.77,48.96,71.18,48.96z M71.18,25.59c-4.3,0-7.79,3.49-7.79,7.79s3.49,7.79,7.79,7.79c4.3,0,7.79-3.49,7.79-7.79
					S75.47,25.59,71.18,25.59z"/>
			</g>
			<g>
				<g>
					<path class="st0" d="M71.99,15.2c-2.15,0-3.9-1.74-3.9-3.9v-2.6c0-2.15,1.74-3.9,3.9-3.9c2.15,0,3.9,1.74,3.9,3.9v2.6
						C75.89,13.46,74.14,15.2,71.99,15.2z"/>
				</g>
				<g>
					<path class="st0" d="M58.9,19.95c-1.52,1.52-3.99,1.52-5.51,0l-1.84-1.84c-1.52-1.52-1.52-3.99,0-5.51s3.99-1.52,5.51,0
						l1.84,1.84C60.42,15.96,60.42,18.43,58.9,19.95z"/>
				</g>
				<g>
					<path class="st0" d="M53,32.57c0,2.15-1.74,3.9-3.9,3.9h-2.6c-2.15,0-3.9-1.74-3.9-3.9s1.74-3.9,3.9-3.9h2.6
						C51.26,28.67,53,30.42,53,32.57z"/>
				</g>
				<g>
					<path class="st0" d="M57.75,45.66c1.52,1.52,1.52,3.99,0,5.51L55.92,53c-1.52,1.52-3.99,1.52-5.51,0
						c-1.52-1.52-1.52-3.99,0-5.51l1.84-1.84C53.76,44.14,56.23,44.14,57.75,45.66z"/>
				</g>
				<g>
					<path class="st0" d="M70.37,51.56c2.15,0,3.9,1.74,3.9,3.9v2.6c0,2.15-1.74,3.9-3.9,3.9c-2.15,0-3.9-1.74-3.9-3.9v-2.6
						C66.47,53.3,68.22,51.56,70.37,51.56z"/>
				</g>
				<g>
					<path class="st0" d="M83.46,46.81c1.52-1.52,3.99-1.52,5.51,0l1.84,1.84c1.52,1.52,1.52,3.99,0,5.51
						c-1.52,1.52-3.99,1.52-5.51,0l-1.84-1.84C81.94,50.79,81.94,48.33,83.46,46.81z"/>
				</g>
				<g>
					<path class="st0" d="M89.36,34.19c0-2.15,1.74-3.9,3.9-3.9h2.6c2.15,0,3.9,1.74,3.9,3.9s-1.74,3.9-3.9,3.9h-2.6
						C91.1,38.09,89.36,36.34,89.36,34.19z"/>
				</g>
				<g>
					<path class="st0" d="M84.61,21.1c-1.52-1.52-1.52-3.99,0-5.51l1.84-1.84c1.52-1.52,3.99-1.52,5.51,0
						c1.52,1.52,1.52,3.99,0,5.51l-1.84,1.84C88.59,22.62,86.13,22.62,84.61,21.1z"/>
				</g>
			</g>
		</g>
	</g>
</g>
<g id="Layer_5" class="st1">
	<g class="st2">
		<g>
			<path class="st0" d="M59.92,31.75c-7.05,0-12.79-5.74-12.79-12.79S52.87,6.17,59.92,6.17s12.79,5.74,12.79,12.79
				S66.97,31.75,59.92,31.75z M59.92,14.7c-2.35,0-4.26,1.91-4.26,4.26s1.91,4.26,4.26,4.26s4.26-1.91,4.26-4.26
				S62.27,14.7,59.92,14.7z"/>
		</g>
		<g>
			<path class="st0" d="M78.4,92.85c-11.75,0-21.31-9.56-21.31-21.31s9.56-21.31,21.31-21.31s21.31,9.56,21.31,21.31
				S90.15,92.85,78.4,92.85z M78.4,58.75c-7.05,0-12.79,5.74-12.79,12.79c0,7.05,5.74,12.79,12.79,12.79
				c7.05,0,12.79-5.74,12.79-12.79C91.18,64.48,85.45,58.75,78.4,58.75z"/>
		</g>
		<g>
			<path class="st0" d="M21.56,92.85c-11.75,0-21.31-9.56-21.31-21.31S9.8,50.22,21.56,50.22s21.31,9.56,21.31,21.31
				S33.31,92.85,21.56,92.85z M21.56,58.75c-7.05,0-12.79,5.74-12.79,12.79c0,7.05,5.74,12.79,12.79,12.79s12.79-5.74,12.79-12.79
				C34.35,64.48,28.61,58.75,21.56,58.75z"/>
		</g>
		<g>
			<path class="st0" d="M48.64,86.58l-5.44-27.2L27.21,43.43l17.27-21.59l3.28,4.59C59.96,43.5,76.55,39.2,77.25,39.01l2.32,8.2
				c-0.87,0.25-19.91,5.43-35.26-11.5l-5.67,7.08l10.63,10.63c1.17,1.17,1.96,2.65,2.29,4.28L57,84.91L48.64,86.58z"/>
		</g>
	</g>
</g>
<g id="Layer_6" class="st1">
	<g class="st2">
		<path class="st3" d="M64.69,60.65c6.3,0,11.71,3.86,14,9.34h0.21c7.61,0,13.8-6.19,13.8-13.8V33.6c0-7.61-6.19-13.8-13.8-13.8
			H34.13c-7.61,0-13.8,6.19-13.8,13.8v36.39h3.5h26.85C52.98,64.51,58.39,60.65,64.69,60.65z"/>
		<g>
			<path class="st0" d="M78.91,12.79H34.13c-11.47,0-20.8,9.33-20.8,20.8v36.39H0.49v7h12.84h10.51h25.74
				C50.18,84.81,56.72,91,64.69,91c7.99,0,14.54-6.21,15.12-14.05c11.05-0.48,19.9-9.59,19.9-20.76V33.6
				C99.71,22.12,90.38,12.79,78.91,12.79z M72.74,76.99c-0.57,3.95-3.95,7-8.05,7s-7.48-3.05-8.05-7c-0.06-0.38-0.12-0.77-0.12-1.17
				c0-2.29,0.95-4.35,2.47-5.84c1.47-1.44,3.48-2.33,5.7-2.33c2.22,0,4.23,0.89,5.7,2.33c1.52,1.48,2.47,3.55,2.47,5.84
				C72.86,76.22,72.8,76.61,72.74,76.99z M92.71,56.19c0,7.61-6.19,13.8-13.8,13.8H78.7c-2.29-5.48-7.7-9.34-14-9.34
				c-6.3,0-11.71,3.86-14,9.34H23.84h-3.5V33.6c0-7.61,6.19-13.8,13.8-13.8h44.77c7.61,0,13.8,6.19,13.8,13.8V56.19z"/>
			<circle class="st0" cx="64.69" cy="75.83" r="5.84"/>
		</g>
		<rect x="26.17" y="34.97" class="st0" width="35.02" height="11.67"/>
		<rect x="68.19" y="34.97" class="st0" width="16.34" height="11.67"/>
	</g>
</g>
</svg>
